<svg xmlns="http://www.w3.org/2000/svg" width="512" height="512" enable-background="new 0 0 256 256" viewBox="0 0 256 256"><switch><g><circle cx="128" cy="128" r="120" fill="#382b73"/><circle cx="128" cy="128" r="102.5" fill="#473080"/><path fill="#382b73" d="m206.325 167.017-17.766-17.766c-1.497-1.497-3.617-1.99-5.525-1.481l-7.103-7.103c4.921-6.594 7.834-14.773 7.834-23.633 0-21.845-17.709-39.554-39.554-39.554-1.196 0-2.379.053-3.548.157-.867-2.829-3.5-4.887-6.614-4.887h-50.353c-3.82 0-6.917 3.097-6.917 6.917v110.667c0 3.82 3.097 6.917 6.917 6.917h50.353c3.82 0 6.917-3.097 6.917-6.917v-33.878c1.07.087 2.152.132 3.245.132 8.86 0 17.04-2.913 23.633-7.834l7.103 7.104c-.51 1.908-.016 4.028 1.481 5.525l17.766 17.766c2.234 2.233 5.854 2.233 8.088 0l4.043-4.043c2.233-2.236 2.233-5.856 0-8.089zm-65.359-20.794v-58.38c1.066-.117 2.148-.178 3.245-.178 16.219 0 29.367 13.148 29.367 29.367s-13.148 29.368-29.367 29.368c-1.096.001-2.179-.059-3.245-.177z"/><path fill="#1caee4" d="m134.05 190.25h-50.354c-3.82 0-6.917-3.097-6.917-6.917v-110.666c0-3.82 3.097-6.917 6.917-6.917h50.353c3.82 0 6.917 3.097 6.917 6.917v110.667c0 3.819-3.096 6.916-6.916 6.916z"/><path fill="#009add" d="m134.05 167.811h-50.354c-3.82 0-6.917-3.097-6.917-6.917v22.439c0 3.82 3.097 6.917 6.917 6.917h50.353c3.82 0 6.917-3.097 6.917-6.917v-22.439c0 3.82-3.096 6.917-6.916 6.917z"/><g fill="#fff"><path d="m108.499 85.155h-19.634c-1.549 0-2.805-1.256-2.805-2.805s1.256-2.805 2.805-2.805h19.634c1.549 0 2.805 1.256 2.805 2.805s-1.256 2.805-2.805 2.805z"/><path d="m128.882 85.155c-1.549 0-2.805-1.256-2.805-2.805s1.256-2.805 2.805-2.805 2.805 1.256 2.805 2.805c-.001 1.549-1.256 2.805-2.805 2.805z"/><path d="m108.499 115.191h-19.634c-1.549 0-2.805-1.256-2.805-2.805s1.256-2.805 2.805-2.805h19.634c1.549 0 2.805 1.256 2.805 2.805s-1.256 2.805-2.805 2.805z"/><path d="m128.882 115.191c-1.549 0-2.805-1.256-2.805-2.805s1.256-2.805 2.805-2.805 2.805 1.256 2.805 2.805c-.001 1.549-1.256 2.805-2.805 2.805z"/></g><path fill="#009add" d="m76.78 95.556h64.187v5.61h-64.187z"/><path fill="#009add" d="m76.78 123.606h64.187v5.61h-64.187z"/><path fill="#fff" d="m168.307 131.213h11.436v17.269h-11.436z" transform="matrix(.707 -.707 .707 .707 -47.917 164.009)"/><path fill="#d1d3d4" d="m169.52 134.14h3.159v17.269h-3.159z" transform="matrix(.707 -.707 .707 .707 -50.843 162.797)"/><path fill="#ef5a9d" d="m194.195 172.147-17.766-17.766c-2.233-2.233-2.233-5.854 0-8.087l4.043-4.043c2.233-2.233 5.854-2.234 8.087 0l17.766 17.766c2.233 2.233 2.233 5.854 0 8.087l-4.043 4.043c-2.233 2.234-5.854 2.234-8.087 0z"/><path fill="#e43d91" d="m197.934 168.409-17.766-17.766c-2.233-2.233-2.233-5.854 0-8.087l.32-.32c-.005.005-.011.01-.016.015l-4.043 4.043c-2.233 2.233-2.233 5.854 0 8.087l17.766 17.766c2.233 2.233 5.854 2.233 8.088 0l3.723-3.723c-2.236 2.218-5.844 2.213-8.072-.015z"/><path fill="#fff" d="m144.211 70.48c-21.845 0-39.554 17.709-39.554 39.554s17.709 39.554 39.554 39.554 39.554-17.709 39.554-39.554-17.709-39.554-39.554-39.554zm0 68.921c-16.219 0-29.368-13.148-29.368-29.367s13.148-29.367 29.368-29.367 29.368 13.148 29.368 29.367-13.149 29.367-29.368 29.367z"/><path fill="#d1d3d4" d="m144.211 76.195c-18.689 0-33.839 15.15-33.839 33.839s15.15 33.839 33.839 33.839 33.839-15.15 33.839-33.839-15.15-33.839-33.839-33.839zm0 63.206c-16.219 0-29.368-13.148-29.368-29.367s13.148-29.367 29.368-29.367 29.368 13.148 29.368 29.367-13.149 29.367-29.368 29.367z"/><circle cx="144.211" cy="110.034" r="29.367" fill="#fede3a"/><path fill="#1caee4" d="m130.35 111.38v24.54c-1.75-.93-3.39-2.04-4.9-3.3-1.84-1.52-3.49-3.27-4.9-5.2v-16.04c0-.53.42-.96.95-.96h7.89c.53 0 .96.43.96.96z"/><path fill="#009add" d="m125.45 110.42v22.2c-1.84-1.52-3.49-3.27-4.9-5.2v-16.04c0-.53.42-.96.95-.96z"/><path fill="#1caee4" d="m169.54 120.43v4.46c-1.34 2.3-3 4.4-4.9 6.23-1.49 1.45-3.13 2.74-4.9 3.84v-14.53c0-.53.43-.95.96-.95h7.89c.52 0 .95.42.95.95z"/><path fill="#009add" d="m164.64 119.48v11.64c-1.49 1.45-3.13 2.74-4.9 3.84v-14.53c0-.53.43-.95.96-.95z"/><path fill="#ef5a9d" d="m140.15 100.18v38.93c-1.69-.22-3.32-.6-4.9-1.11-1.71-.54-3.35-1.24-4.9-2.08v-35.74c0-.53.42-.96.95-.96h7.89c.53 0 .96.43.96.96z"/><path fill="#e43d91" d="m135.25 99.22v38.78c-1.71-.54-3.35-1.24-4.9-2.08v-35.74c0-.53.42-.96.95-.96z"/><path fill="#1caee4" d="m149.94 94.93v43.9c-1.59.33-3.23.51-4.9.55-.27.02-.55.02-.83.02-1.38 0-2.74-.09-4.06-.29v-44.18c0-.52.42-.95.95-.95h7.89c.53 0 .95.43.95.95z"/><path fill="#009add" d="m145.04 93.98v45.4c-.27.02-.55.02-.83.02-1.38 0-2.74-.09-4.06-.29v-44.18c0-.52.42-.95.95-.95z"/><path fill="#ef5a9d" d="m159.74 109.02v25.94c-1.54.96-3.18 1.79-4.9 2.45-1.57.62-3.21 1.1-4.9 1.42v-29.81c0-.53.43-.95.96-.95h7.89c.53 0 .95.42.95.95z"/><path fill="#e43d91" d="m154.84 108.07v29.34c-1.57.62-3.21 1.1-4.9 1.42v-29.81c0-.53.43-.95.96-.95z"/></g></switch></svg>