<svg xmlns="http://www.w3.org/2000/svg" id="Layer_1" width="512" height="512" enable-background="new 0 0 512.004 512.004" viewBox="0 0 512.004 512.004"><g><g><path style="fill:#4299e1" d="m504.59 148.736-185.187-49.62c-.975-12.311-9.548-23.264-22.14-26.638-7.721-2.068-15.8-.997-22.752 3.018-6.954 4.015-11.922 10.476-13.99 18.195l-4.52 16.867-4.52-16.867c-2.068-7.719-7.036-14.181-13.99-18.195-6.953-4.015-15.034-5.086-22.753-3.018-12.591 3.374-21.164 14.327-22.139 26.638l-185.187 49.62c-2.562.687-4.746 2.362-6.072 4.659s-1.686 5.026-.999 7.588l38.823 144.889c1.197 4.468 5.237 7.415 9.653 7.414.856 0 1.728-.111 2.595-.343l161.991-43.405-5.429 20.261c-1.43 5.335 1.736 10.818 7.071 12.248 5.333 1.429 10.818-1.736 12.248-7.071l52.547-196.109c.686-2.559 2.345-4.707 4.671-6.05 2.328-1.343 5.02-1.705 7.577-1.02 5.326 1.427 8.498 6.921 7.071 12.247l-82.824 309.096c-1.427 5.326-6.922 8.497-12.248 7.071-2.559-.686-4.708-2.345-6.051-4.671-1.343-2.327-1.706-5.018-1.02-7.576l6.977-26.038c1.43-5.335-1.736-10.818-7.071-12.248-5.335-1.432-10.818 1.736-12.248 7.071l-6.977 26.038c-2.068 7.719-.997 15.8 3.018 22.753s10.477 11.921 18.196 13.99c2.591.694 5.193 1.026 7.757 1.025 13.244-.001 25.397-8.852 28.984-22.238l20.348-75.938 20.348 75.938c3.587 13.388 15.739 22.238 28.984 22.238 2.563 0 5.167-.332 7.757-1.026 7.719-2.068 14.181-7.036 18.196-13.989 4.014-6.953 5.086-15.034 3.018-22.753l-35.703-133.249 161.99 43.405c.867.232 1.738.343 2.595.343 4.415 0 8.456-2.947 9.653-7.414l38.823-144.889c1.429-5.334-1.737-10.817-7.071-12.247zm-284.674-56.94c2.558-.687 5.249-.324 7.576 1.02 2.326 1.343 3.985 3.492 4.671 6.051l13.485 50.327-10.353 38.638-22.451-83.786c0-.001 0-.002-.001-.002v-.001c-1.425-5.326 1.747-10.819 7.073-12.247zm-115.728 186.3-7.764-28.976 28.98-7.765 7.764 28.977-28.98 7.764c.001 0 .001 0 0 0zm-61.234-35.355-7.765-28.979h.001l28.976-7.764 7.765 28.979zm40.529-41.92 28.98-7.765 7.765 28.98-28.98 7.765zm-12.941-48.295 28.979-7.765v.001l7.764 28.976-28.979 7.765zm125.572-33.647 7.764 28.977-28.976 7.764-7.764-28.976zm-48.294 12.941 7.764 28.976-28.979 7.765-7.764-28.976zm4.667 133.334-7.764-28.976 28.979-7.765 7.764 28.977-28.979 7.764c0 .001 0 .001 0 0zm-12.941-48.294-7.765-28.98 28.979-7.765 7.765 28.98zm40.533-41.922 28.976-7.764 7.765 28.98s0 0-.001 0l-28.975 7.764zm-128.855-17.235 7.764 28.977-28.976 7.764-7.764-28.977zm-3.094 104.357 28.976-7.764 7.764 28.977-28.976 7.764zm152.655-9.846-7.764-28.977 28.976-7.764 2.946 10.996-5.563 20.763zm232.91-70.711-28.979-7.765 7.764-28.976 28.979 7.765zm35.353 61.238-28.976-7.764 7.765-28.979 28.976 7.764zm-48.294-12.94-28.98-7.765 7.765-28.98 28.98 7.765zm-12.941 48.295-28.98-7.765 7.764-28.977 28.98 7.765zm-62.949-151.453s0 .001 0 0l-7.764 28.977-28.976-7.764 7.764-28.977zm40.533 41.918-28.979-7.765 7.764-28.976s0 0 0-.001l28.979 7.765zm-82.45-1.387 28.976 7.764-7.765 28.98-28.975-7.764s0 0-.001 0zm48.295 12.941 28.979 7.765-7.765 28.98-28.979-7.765zm16.037 56.063-7.764 28.976v.001l-28.979-7.765 7.764-28.977zm-53.314 179.362c-1.343 2.327-3.493 3.985-6.051 4.671-5.326 1.425-10.82-1.745-12.247-7.071l-29.313-109.398 10.353-38.637 38.279 142.859c.685 2.558.323 5.249-1.021 7.576zm-26.906-189.072 2.946-10.995 28.976 7.764-7.764 28.977-18.594-4.982zm169.048 64.569-28.976-7.764 7.764-28.977 28.975 7.764zm25.883-96.594-28.976-7.764 7.764-28.976 28.976 7.764z"/><path style="fill:#4299e1" d="m205.984 345.862c5.523 0 10-4.477 10-10s-4.477-10-10-10h-.008c-5.523 0-9.996 4.477-9.996 10s4.481 10 10.004 10z"/></g></g></svg>