<svg xmlns="http://www.w3.org/2000/svg" viewBox="0 0 64 64" width="64px" height="64px"><linearGradient id="Mey2MJ7FMX1aCf5xedTE_a" x1="32" x2="32" y1="18" y2="46" gradientUnits="userSpaceOnUse" spreadMethod="reflect"><stop offset="0" stop-color="#6dc7ff"/><stop offset="1" stop-color="#e6abff"/></linearGradient><path fill="url(#Mey2MJ7FMX1aCf5xedTE_a)" d="M39.994,18H24.006L16,32l2.68,4.667v0.012L24.006,46h15.988l0.196-0.35L48,32L39.994,18z M32,39c-3.824,0-6.931-3.138-6.931-7s3.108-7,6.931-7s6.931,3.138,6.931,7S35.824,39,32,39z"/><linearGradient id="Mey2MJ7FMX1aCf5xedTE_b" x1="32" x2="32" y1="9" y2="54.953" gradientUnits="userSpaceOnUse" spreadMethod="reflect"><stop offset="0" stop-color="#1a6dff"/><stop offset="1" stop-color="#c822ff"/></linearGradient><path fill="url(#Mey2MJ7FMX1aCf5xedTE_b)" d="M32,25c-3.859,0-7,3.141-7,7s3.141,7,7,7s7-3.141,7-7S35.859,25,32,25z M32,37 c-2.757,0-5-2.243-5-5s2.243-5,5-5s5,2.243,5,5S34.757,37,32,37z"/><linearGradient id="Mey2MJ7FMX1aCf5xedTE_c" x1="32" x2="32" y1="8" y2="56" gradientUnits="userSpaceOnUse" spreadMethod="reflect"><stop offset="0" stop-color="#1a6dff"/><stop offset="1" stop-color="#c822ff"/></linearGradient><path fill="url(#Mey2MJ7FMX1aCf5xedTE_c)" d="M57.358,29.517L46.783,10.511C45.921,8.962,44.309,8,42.575,8h-21.15 c-1.733,0-3.346,0.962-4.208,2.511L6.642,29.517c-0.853,1.532-0.853,3.435,0,4.967l10.575,19.006C18.079,55.038,19.691,56,21.425,56 h21.15c1.733,0,3.346-0.962,4.208-2.511l10.575-19.006C58.211,32.951,58.211,31.049,57.358,29.517z M18.965,11.483 C19.474,10.568,20.417,10,21.425,10h21.15c1.008,0,1.951,0.568,2.46,1.483L48.105,17H40.58h-6.663H23.42L16,29.985l-3.714-6.499 L18.965,11.483z M40.025,43.941L39.42,45H24.58l-7.429-13l7.428-13h9.337h5.503l7.429,13L40.025,43.941z M18.965,52.517L8.39,33.511 c-0.519-0.932-0.519-2.09,0-3.021l2.761-4.961l11.982,20.968l0,0L23.42,47h14.857l-4,7H21.425 C20.417,54,19.474,53.432,18.965,52.517z M55.61,33.511L45.035,52.517C44.526,53.432,43.583,54,42.575,54h-5.995l12.288-21.504l0,0 L49.151,32l-7.428-13h7.495l6.393,11.489C56.129,31.421,56.129,32.579,55.61,33.511z"/></svg>