<svg xmlns="http://www.w3.org/2000/svg" xmlns:xlink="http://www.w3.org/1999/xlink" id="Capa_1" x="0" y="0" version="1.1" viewBox="0 0 92.821 92.821" xml:space="preserve" style="enable-background:new 0 0 92.821 92.821"><g><g><path style="fill:#4299e1" d="M77.45,65.06V52.924h-4.452v9.702c0,1.517-1.242,2.756-2.756,2.756H15.106 c-1.514,0-2.756-1.238-2.756-2.756V29.554c0-1.521,1.242-2.759,2.756-2.759H46.65v-2.827H11.066c-1.739,0-3.167,1.417-3.167,3.16 v18.971V65.06v3.16L0,77.704c0,2.62,2.122,4.746,4.738,4.746h75.868c2.616,0,4.738-2.126,4.738-4.746l-7.899-9.484v-3.16H77.45z M49.002,80.864H36.354c-0.44,0-0.791-0.351-0.791-0.791s0.351-0.791,0.791-0.791h12.644c0.433,0,0.791,0.351,0.791,0.791 C49.782,80.513,49.435,80.864,49.002,80.864z M29.644,77.704l2.412-2.895h21.237l2.412,2.895 C55.705,77.704,29.644,77.704,29.644,77.704z"/><g><rect style="fill:#4299e1" width="6.603" height="6.596" x="37.485" y="47.287"/><rect style="fill:#4299e1" width="6.599" height="6.603" x="41.622" y="38.219"/><rect style="fill:#4299e1" width="6.599" height="6.599" x="48.114" y="46.5"/><rect style="fill:#4299e1" width="7.831" height="7.831" x="53.361" y="35.534"/><rect style="fill:#4299e1" width="7.831" height="7.831" x="64.437" y="11.531"/><rect style="fill:#4299e1" width="7.831" height="7.831" x="50.229" y="25.693"/><rect style="fill:#4299e1" width="11.184" height="11.184" x="62.537" y="22.343"/><rect style="fill:#4299e1" width="13.528" height="13.532" x="70.89" y="35.824"/><rect style="fill:#4299e1" width="16.81" height="16.81" x="76.011" y="10.372"/><rect style="fill:#4299e1" width="7.831" height="7.831" x="60.518" y="44.263"/></g></g></g></svg>